<svg xmlns="http://www.w3.org/2000/svg" width="25" height="25" fill="none" xmlns:v="https://vecta.io/nano"><g clip-path="url(#A)"><path d="M12.5 25C19.404 25 25 19.404 25 12.5S19.404 0 12.5 0 0 5.596 0 12.5 5.596 25 12.5 25z" fill="#f0f0f0"/><g fill="#d80027"><path d="M11.957 12.5H25c0-1.128-.15-2.221-.431-3.261H11.957V12.5zm0-6.522h11.209c-.765-1.249-1.743-2.352-2.884-3.261h-8.325v3.261zM12.5 25a12.45 12.45 0 0 0 7.781-2.717H4.719A12.45 12.45 0 0 0 12.5 25zM1.835 19.022h21.331c.614-1.002 1.091-2.098 1.404-3.261H.431c.313 1.163.79 2.259 1.404 3.261z"/></g><path d="M5.79 1.952h1.139l-1.06.77.405 1.246-1.06-.77-1.06.77.35-1.076a12.57 12.57 0 0 0-2.424 2.702h.365l-.674.49-.302.534.322.991-.601-.437-.409.97.355 1.092h1.31l-1.06.77.405 1.246-1.06-.77-.635.461A12.62 12.62 0 0 0 0 12.5h12.5V0a12.44 12.44 0 0 0-6.71 1.952zm.484 9.298l-1.06-.77-1.06.77.405-1.246-1.06-.77h1.31l.405-1.246.405 1.246h1.31l-1.06.77.405 1.246zM5.87 6.363l.405 1.246-1.06-.77-1.06.77.405-1.246-1.06-.77h1.31l.405-1.246.405 1.246h1.31l-1.06.77zm4.888 4.887l-1.06-.77-1.06.77.405-1.246-1.06-.77h1.31l.405-1.246.405 1.246h1.31l-1.059.77.405 1.246zm-.405-4.887l.405 1.246-1.06-.77-1.06.77.405-1.246-1.06-.77h1.31l.405-1.246.405 1.246h1.31l-1.059.77zm0-3.641l.405 1.246-1.06-.77-1.06.77.405-1.246-1.06-.77h1.31L9.699.706l.405 1.246h1.31l-1.059.77z" fill="#0052b4"/></g><defs><clipPath id="A"><path fill="#fff" d="M0 0h25v25H0z"/></clipPath></defs></svg>